<?xml version="1.0" encoding="UTF-8" standalone="no"?>
<!DOCTYPE svg PUBLIC "-//W3C//DTD SVG 1.1//EN" "http://www.w3.org/Graphics/SVG/1.1/DTD/svg11.dtd">
<!-- Generated by Microsoft Visio, SVG Export CacheManager.svg Page-1 -->
<svg xmlns="http://www.w3.org/2000/svg" xmlns:xlink="http://www.w3.org/1999/xlink" xmlns:ev="http://www.w3.org/2001/xml-events"
		width="11in" height="8.5in" viewBox="0 0 792 612" xml:space="preserve" color-interpolation-filters="sRGB" class="st36">
	<style type="text/css">
	<![CDATA[
		.st1 {fill:#4672c4;fill-opacity:0.4}
		.st2 {fill:#fec000;fill-opacity:0.4}
		.st3 {fill:#b0c2e3;stroke:#31528f;stroke-width:0.75}
		.st4 {fill:#3c63ac}
		.st5 {fill:#feffff;font-family:Calibri;font-size:1.00001em;font-stretch:semi-expanded;font-weight:bold}
		.st6 {font-size:1em}
		.st7 {fill:#4672c4;stroke:#c7c8c8;stroke-width:0.25}
		.st8 {fill:#feffff;font-family:Calibri;font-size:1.00001em;font-weight:bold}
		.st9 {font-size:1em;text-decoration:underline}
		.st10 {font-size:0.83333em}
		.st11 {font-size:0.83333em;font-weight:normal}
		.st12 {font-size:0.499989em;font-weight:normal}
		.st13 {fill:#feffff;font-family:Calibri;font-size:1.5em;font-weight:bold}
		.st14 {font-size:0.666672em;font-weight:normal}
		.st15 {marker-end:url(#mrkr4-247);stroke:#4672c4;stroke-linecap:round;stroke-linejoin:round;stroke-width:1}
		.st16 {fill:#4672c4;fill-opacity:1;stroke:#4672c4;stroke-opacity:1;stroke-width:0.28409090909091}
		.st17 {marker-end:url(#mrkr4-268);stroke:#70ad47;stroke-linecap:round;stroke-linejoin:round;stroke-width:1}
		.st18 {fill:#70ad47;fill-opacity:1;stroke:#70ad47;stroke-opacity:1;stroke-width:0.28409090909091}
		.st19 {marker-end:url(#mrkr4-279);stroke:#c00000;stroke-linecap:round;stroke-linejoin:round;stroke-width:1}
		.st20 {fill:#c00000;fill-opacity:1;stroke:#c00000;stroke-opacity:1;stroke-width:0.28409090909091}
		.st21 {marker-end:url(#mrkr4-290);stroke:#0070c0;stroke-linecap:round;stroke-linejoin:round;stroke-width:1}
		.st22 {fill:#0070c0;fill-opacity:1;stroke:#0070c0;stroke-opacity:1;stroke-width:0.28409090909091}
		.st23 {marker-end:url(#mrkr4-301);stroke:#002060;stroke-linecap:round;stroke-linejoin:round;stroke-width:1}
		.st24 {fill:#002060;fill-opacity:1;stroke:#002060;stroke-opacity:1;stroke-width:0.28409090909091}
		.st25 {fill:#feffff;font-family:Calibri;font-size:0.833336em;font-weight:bold}
		.st26 {font-size:0.799995em;font-weight:normal}
		.st27 {font-size:0.599989em;font-weight:normal}
		.st28 {font-size:1em;font-weight:normal}
		.st29 {fill:#ffffff;font-family:Calibri;font-size:0.833336em}
		.st30 {fill:#8ea9db;stroke:#c7c8c8;stroke-width:0.25}
		.st31 {fill:#3359a2;stroke:#c7c8c8;stroke-width:0.25}
		.st32 {fill:#feffff;font-family:Calibri;font-size:0.75em;font-weight:bold}
		.st33 {font-size:0.666656em;font-weight:normal}
		.st34 {fill:#feffff;font-family:Calibri;font-size:0.833336em}
		.st35 {font-size:0.599989em}
		.st36 {fill:none;fill-rule:evenodd;font-size:12px;overflow:visible;stroke-linecap:square;stroke-miterlimit:3}
	]]>
	</style>

	<defs id="Patterns_And_Gradients">
		<linearGradient id="grad0-13" x1="0" y1="0" x2="1" y2="0" gradientTransform="rotate(90 0.5 0.5)">
			<stop offset="0.01" stop-color="#fff4d2" stop-opacity="1"/>
			<stop offset="0.5" stop-color="#ffe391" stop-opacity="1"/>
			<stop offset="1" stop-color="#fff4d2" stop-opacity="1"/>
		</linearGradient>
		<linearGradient id="grad0-17" x1="0" y1="0" x2="1" y2="0" gradientTransform="rotate(270 0.5 0.5)">
			<stop offset="0" stop-color="#ffe391" stop-opacity="1"/>
			<stop offset="1" stop-color="#fff4d2" stop-opacity="1"/>
		</linearGradient>
	</defs>
	<defs id="Markers">
		<g id="lend4">
			<path d="M 2 1 L 0 0 L 2 -1 L 2 1 " style="stroke:none"/>
		</g>
		<marker id="mrkr4-247" class="st16" refX="-7.04" orient="auto" markerUnits="strokeWidth" overflow="visible">
			<use xlink:href="#lend4" transform="scale(-3.52,-3.52) "/>
		</marker>
		<marker id="mrkr4-268" class="st18" refX="-7.04" orient="auto" markerUnits="strokeWidth" overflow="visible">
			<use xlink:href="#lend4" transform="scale(-3.52,-3.52) "/>
		</marker>
		<marker id="mrkr4-279" class="st20" refX="-7.04" orient="auto" markerUnits="strokeWidth" overflow="visible">
			<use xlink:href="#lend4" transform="scale(-3.52,-3.52) "/>
		</marker>
		<marker id="mrkr4-290" class="st22" refX="-7.04" orient="auto" markerUnits="strokeWidth" overflow="visible">
			<use xlink:href="#lend4" transform="scale(-3.52,-3.52) "/>
		</marker>
		<marker id="mrkr4-301" class="st24" refX="-7.04" orient="auto" markerUnits="strokeWidth" overflow="visible">
			<use xlink:href="#lend4" transform="scale(-3.52,-3.52) "/>
		</marker>
	</defs>
	<g>
		<title>Page-1</title>
		<g id="group138-1" transform="translate(17.6538,-111.022)">
			<title>Translucent</title>
			<g id="group139-2">
				<title>Sheet.139</title>
				<g id="shape140-3" transform="translate(2.88,2.88)">
					<title>Sheet.140</title>
					<path d="M0 612 L379.56 612 L759.12 612 L759.12 389.25 L379.56 389.25 L0 389.25 L0 612 Z" class="st1"/>
				</g>
				<g id="shape139-6">
					<path d="M0 612 L379.56 612 L759.12 612 L759.12 389.25 L379.56 389.25 L0 389.25 L0 612 Z" class="st2"/>
				</g>
			</g>
			<g id="group141-9" transform="translate(0,-222.75)">
				<title>Sheet.141</title>
				<desc>Heading</desc>
				<g id="shape142-10">
					<title>Sheet.142</title>
				</g>
				<g id="shape141-14"/>
			</g>
		</g>
		<g id="group33-18" transform="translate(27,-18.6571)">
			<title>Banner</title>
			<g id="group34-19">
				<title>Sheet.34</title>
				<g id="shape35-20" transform="translate(2.88,2.88)">
					<title>Sheet.35</title>
				</g>
				<g id="shape34-22">
					<path d="M0 612 L370.99 612 L741.98 612 L741.98 524.91 L370.99 524.91 L0 524.91 L0 612 Z" class="st3"/>
				</g>
			</g>
			<g id="group36-24" transform="translate(-589.5,612) rotate(-90)">
				<title>Sheet.36</title>
				<desc>Cache Stores</desc>
				<g id="shape37-25" transform="translate(0,13.125)">
					<title>Sheet.37</title>
					<path d="M0.37 612 A108.043 108.043 0 0 1 86.72 612 L86.72 607.5 A108.043 108.043 -180 0 0 0.38 607.5 L0.37 612
								 Z" class="st4"/>
				</g>
				<g id="shape36-28">
					<path d="M-0 621 A109.85 109.85 0 0 1 87.09 621 L87.09 589.5 L0 589.5 L0 621 Z" class="st4"/>
					<text x="8.42" y="604.35" class="st5">Cache Stores</text>				</g>
			</g>
		</g>
		<g id="group70-32" transform="translate(26.6538,-120.022)">
			<title>Banner.70</title>
			<g id="group71-33">
				<title>Sheet.71</title>
				<g id="shape72-34" transform="translate(2.88,2.88)">
					<title>Sheet.72</title>
				</g>
				<g id="shape71-36">
					<path d="M0 612 L370.38 612 L740.77 612 L740.77 493.52 L370.38 493.52 L0 493.52 L0 612 Z" class="st3"/>
				</g>
			</g>
			<g id="group73-38" transform="translate(-571.5,612) rotate(-90)">
				<title>Sheet.73</title>
				<desc>Cache Store Configurations</desc>
				<g id="shape74-39" transform="translate(0,13.125)">
					<title>Sheet.74</title>
					<path d="M0.37 612 A196.998 196.998 0 0 1 118.1 612 L118.1 607.5 A196.998 196.998 -180 0 0 0.37 607.5 L0.37 612
								 Z" class="st4"/>
				</g>
				<g id="shape73-42">
					<path d="M-0 621 A199.459 199.459 0 0 1 118.48 621 L118.48 571.5 L0 571.5 L0 621 Z" class="st4"/>
					<text x="26.74" y="588.15" class="st5">Cache Store <tspan x="19.04" dy="1.2em" class="st6">Configurations</tspan></text>				</g>
			</g>
		</g>
		<g id="group75-47" transform="translate(27,-252)">
			<title>Banner.75</title>
			<g id="group76-48">
				<title>Sheet.76</title>
				<g id="shape77-49" transform="translate(2.88,2.88)">
					<title>Sheet.77</title>
				</g>
				<g id="shape76-51">
					<path d="M0 612 L370.38 612 L740.77 612 L740.77 539.23 L370.38 539.23 L0 539.23 L0 612 Z" class="st3"/>
				</g>
			</g>
			<g id="group78-53" transform="translate(-558,612) rotate(-90)">
				<title>Sheet.78</title>
				<desc>Partition Configurations</desc>
				<g id="shape79-54" transform="translate(0,13.125)">
					<title>Sheet.79</title>
					<path d="M0.38 612 A76.5441 76.5441 0 0 1 72.4 612 L72.4 607.5 A76.5441 76.5441 -180 0 0 0.37 607.5 L0.37 612
								 Z" class="st4"/>
				</g>
				<g id="shape78-57">
					<path d="M0 621 A78.0524 78.0524 0 0 1 72.77 621 L72.77 558 L0 558 L0 621 Z" class="st4"/>
					<text x="12.36" y="574.2" class="st5">Partition <tspan x="7.53" dy="1.2em" class="st6">Configurat</tspan><tspan
								x="25.04" dy="1.2em" class="st6">ions</tspan></text>				</g>
			</g>
		</g>
		<g id="group89-63" transform="translate(26.6538,-400.114)">
			<title>Banner.89</title>
			<g id="group90-64">
				<title>Sheet.90</title>
				<g id="shape91-65" transform="translate(2.88,2.88)">
					<title>Sheet.91</title>
				</g>
				<g id="shape90-67">
					<path d="M0 612 L371.46 612 L742.92 612 L742.92 421.14 L371.46 421.14 L0 421.14 L0 612 Z" class="st3"/>
				</g>
			</g>
			<g id="group92-69" transform="translate(-589.5,612) rotate(-90)">
				<title>Sheet.92</title>
				<desc>Application</desc>
				<g id="shape93-70" transform="translate(0,13.125)">
					<title>Sheet.93</title>
					<path d="M0.38 612 A506.492 506.492 0 0 1 190.49 612 L190.49 607.5 A506.492 506.492 -180 0 0 0.38 607.5 L0.37
								 612 Z" class="st4"/>
				</g>
				<g id="shape92-73">
					<path d="M-0 621 A510.461 510.461 0 0 1 190.86 621 L190.86 589.5 L0 589.5 L0 621 Z" class="st4"/>
					<text x="64.09" y="604.35" class="st5">Application</text>				</g>
			</g>
		</g>
		<g id="shape48-77" transform="translate(76.1538,-129.022)">
			<title>Rounded Rectangle.48</title>
			<desc>Memory Store Configuration Name : DistributedInMemory Type : ...</desc>
			<path d="M17.58 612 L158.26 612 A17.5843 17.5843 -180 0 0 175.85 594.42 L175.85 529.11 A17.5843 17.5843 -180 0 0 158.26
						 511.52 L17.58 511.52 A17.5843 17.5843 -180 0 0 0 529.11 L0 594.42 A17.5843 17.5843 -180 0 0 17.58 612 Z"
					class="st7"/>
			<text x="16.42" y="531.76" class="st8"><tspan class="st9">Memory Store Configuration</tspan> <tspan x="4" dy="1.26em"
						class="st10">Name : </tspan><tspan class="st11">DistributedInMemory </tspan><tspan x="4" dy="1.2em"
						class="st10">Type :</tspan><tspan class="st11"> </tspan><tspan x="4" dy="1.4em" class="st12">Pavalisoft.Caching.InMemory.MemoryDistributedCacheStoreType,P</tspan><tspan
						x="4" dy="1.8em" class="st12">avalisoft.Caching.InMemory </tspan><tspan x="4" dy="1.2em" class="st10">StoreConfig :</tspan><tspan
						class="st11"> </tspan><tspan x="4" dy="1.2em" class="st11">{&#34;ExpirationScanFrequency&#34;:&#34;00:05:00&#34;}</tspan></text>		</g>
		<g id="shape50-90" transform="translate(439.615,-129.022)">
			<title>Rounded Rectangle.50</title>
			<desc>Redis Store Configuration Name : DistributedRedis Type : Pava...</desc>
			<path d="M13.78 612 L123.99 612 A13.7767 13.7767 -180 0 0 137.77 598.22 L137.77 525.3 A13.7767 13.7767 -180 0 0 123.99
						 511.52 L13.78 511.52 A13.7767 13.7767 -180 0 0 0 525.3 L0 598.22 A13.7767 13.7767 -180 0 0 13.78 612 Z"
					class="st7"/>
			<text x="5.24" y="525.76" class="st8"><tspan class="st9">Redis Store Configuration</tspan> <tspan x="4" dy="1.26em"
						class="st10">Name : </tspan><tspan class="st11">DistributedRedis </tspan><tspan x="4" dy="1.2em"
						class="st10">Type :</tspan><tspan class="st11"> </tspan><tspan x="4" dy="1.4em" class="st12">Pavalisoft.Caching.Redis.RedisDistributedCacheStore</tspan><tspan
						x="4" dy="1.8em" class="st12">Type,Pavalisoft.Caching.Redis </tspan><tspan x="4" dy="1.2em" class="st10">StoreConfig :</tspan><tspan
						class="st11"> </tspan><tspan x="4" dy="1.2em" class="st11">{&#34;Configuration&#34;:&#34;00:05:00&#34;, </tspan><tspan
						x="4" dy="1.2em" class="st11">&#34;InstanceName&#34;:&#34;localhost&#34;}</tspan></text>		</g>
		<g id="shape51-104" transform="translate(258.577,-129.022)">
			<title>Rounded Rectangle.51</title>
			<desc>SQL Server Store Configuration Name : DistributedSqlServer Ty...</desc>
			<path d="M17.58 612 L158.26 612 A17.5843 17.5843 -180 0 0 175.85 594.42 L175.85 529.11 A17.5843 17.5843 -180 0 0 158.26
						 511.52 L17.58 511.52 A17.5843 17.5843 -180 0 0 0 529.11 L0 594.42 A17.5843 17.5843 -180 0 0 17.58 612 Z"
					class="st7"/>
			<text x="10.94" y="523.36" class="st8"><tspan class="st9">SQL Server Store Configuration</tspan> <tspan x="4"
						dy="1.26em" class="st10">Name : </tspan><tspan class="st11">DistributedSqlServer </tspan><tspan x="4"
						dy="1.2em" class="st10">Type :</tspan><tspan class="st11"> </tspan><tspan x="4" dy="1.4em" class="st12">Pavalisoft.Caching.SqlServer.SqlServerDistributedCacheStoreType,Pa</tspan><tspan
						x="4" dy="1.8em" class="st12">valisoft.Caching.SqlServer </tspan><tspan x="4" dy="1.2em" class="st10">StoreConfig :</tspan><tspan
						class="st11"> </tspan><tspan class="st12">{&#34;ExpiredItemsDeletionInterval&#34;:&#34;00:05:00&#34;, </tspan><tspan
						x="4" dy="1.4em" class="st12">&#34;ConnectionString&#34;:&#34;Data Source=localhost\SQLEXPRESS;Initial </tspan><tspan
						x="4" dy="1.2em" class="st12">Catalog=DistributedCache;Integrated Security=True&#34;, </tspan><tspan x="4"
						dy="1.2em" class="st12">&#34;SchemaName&#34;:&#34;store&#34;, &#34;TableName&#34;:&#34;Cache&#34;, </tspan><tspan
						x="4" dy="1.2em" class="st12">&#34;DefaultSlidingExpiration&#34;:&#34;00:05:00&#34;}</tspan></text>		</g>
		<g id="shape65-121" transform="translate(582.577,-129.022)">
			<title>Rounded Rectangle.65</title>
			<desc>Custom Store Configuration Name : DistributedMySql Type : Pav...</desc>
			<path d="M17.58 612 L158.26 612 A17.5843 17.5843 -180 0 0 175.85 594.42 L175.85 529.11 A17.5843 17.5843 -180 0 0 158.26
						 511.52 L17.58 511.52 A17.5843 17.5843 -180 0 0 0 529.11 L0 594.42 A17.5843 17.5843 -180 0 0 17.58 612 Z"
					class="st7"/>
			<text x="18.79" y="523.36" class="st8"><tspan class="st9">Custom Store Configuration</tspan> <tspan x="4" dy="1.26em"
						class="st10">Name : </tspan><tspan class="st11">DistributedMySql </tspan><tspan x="4" dy="1.2em"
						class="st10">Type :</tspan><tspan class="st11"> </tspan><tspan x="4" dy="1.4em" class="st12">Pavalisoft.Caching.MySql.MySqlDistributedCacheStoreType,Pavalisof</tspan><tspan
						x="4" dy="1.8em" class="st12">t.Caching.MySql </tspan><tspan x="4" dy="1.2em" class="st10">StoreConfig :</tspan><tspan
						class="st11"> </tspan><tspan class="st12">{&#34;ExpiredItemsDeletionInterval&#34;:&#34;00:05:00&#34;, </tspan><tspan
						x="4" dy="1.4em" class="st12">&#34;ConnectionString&#34;:&#34;Data Source=localhost:9001;Initial </tspan><tspan
						x="4" dy="1.2em" class="st12">Catalog=DistributedCache;Integrated Security=True&#34;, </tspan><tspan x="4"
						dy="1.2em" class="st12">&#34;SchemaName&#34;:&#34;store&#34;, &#34;TableName&#34;:&#34;Cache&#34;, </tspan><tspan
						x="4" dy="1.2em" class="st12">&#34;DefaultSlidingExpiration&#34;:&#34;00:05:00&#34;}</tspan></text>		</g>
		<g id="shape80-138" transform="translate(93.4615,-261)">
			<title>Rounded Rectangle.80</title>
			<desc>Frequent Data Partition Name : FrequentData StoreName : Distr...</desc>
			<path d="M15.51 612 L139.57 612 A15.5074 15.5074 -180 0 0 155.08 596.49 L155.08 572.74 A15.5074 15.5074 -180 0 0 139.57
						 557.23 L15.51 557.23 A15.5074 15.5074 -180 0 0 0 572.74 L0 596.49 A15.5074 15.5074 -180 0 0 15.51 612 Z"
					class="st7"/>
			<text x="18.53" y="570.21" class="st8"><tspan class="st9">Frequent Data Partition</tspan> <tspan x="4" dy="1.26em"
						class="st10">Name : </tspan><tspan class="st11">FrequentData </tspan><tspan x="4" dy="1.2em" class="st10">StoreName :</tspan><tspan
						class="st11"> </tspan><tspan class="st11">DistributedInMemory </tspan><tspan x="4" dy="1.2em" class="st10">SlidingExpiration :</tspan><tspan
						class="st11"> </tspan><tspan class="st11">00:05:00</tspan></text>		</g>
		<g id="shape85-150" transform="translate(268.962,-261)">
			<title>Rounded Rectangle.85</title>
			<desc>Localization Data Partition Name : LocalizationData StoreName...</desc>
			<path d="M15.51 612 L139.57 612 A15.5074 15.5074 -180 0 0 155.08 596.49 L155.08 572.74 A15.5074 15.5074 -180 0 0 139.57
						 557.23 L15.51 557.23 A15.5074 15.5074 -180 0 0 0 572.74 L0 596.49 A15.5074 15.5074 -180 0 0 15.51 612 Z"
					class="st7"/>
			<text x="11.67" y="570.21" class="st8"><tspan class="st9">Localization Data Partition</tspan> <tspan x="4" dy="1.26em"
						class="st10">Name : </tspan><tspan class="st11">LocalizationData </tspan><tspan x="4" dy="1.2em"
						class="st10">StoreName :</tspan><tspan class="st11"> </tspan><tspan class="st11">DistributedSqlServer </tspan><tspan
						x="4" dy="1.2em" class="st10">SlidingExpiration :</tspan><tspan class="st11"> </tspan><tspan class="st11">15:00:00</tspan></text>		</g>
		<g id="shape86-162" transform="translate(436.5,-261)">
			<title>Rounded Rectangle.86</title>
			<desc>Master Data Partition Name : MasterData StoreName : Distribut...</desc>
			<path d="M15.51 612 L139.57 612 A15.5074 15.5074 -180 0 0 155.08 596.49 L155.08 572.74 A15.5074 15.5074 -180 0 0 139.57
						 557.23 L15.51 557.23 A15.5074 15.5074 -180 0 0 0 572.74 L0 596.49 A15.5074 15.5074 -180 0 0 15.51 612 Z"
					class="st7"/>
			<text x="23.37" y="570.21" class="st8"><tspan class="st9">Master Data Partition</tspan> <tspan x="4" dy="1.26em"
						class="st10">Name : </tspan><tspan class="st11">MasterData </tspan><tspan x="4" dy="1.2em" class="st10">StoreName :</tspan><tspan
						class="st11"> </tspan><tspan class="st11">DistributedRedis </tspan><tspan x="4" dy="1.2em" class="st10">SlidingExpiration :</tspan><tspan
						class="st11"> </tspan><tspan class="st11">00:05:00</tspan></text>		</g>
		<g id="shape87-174" transform="translate(601.962,-261)">
			<title>Rounded Rectangle.87</title>
			<desc>In-Frequent Data Partition Name : InFrequentData StoreName : ...</desc>
			<path d="M15.51 612 L139.57 612 A15.5074 15.5074 -180 0 0 155.08 596.49 L155.08 572.74 A15.5074 15.5074 -180 0 0 139.57
						 557.23 L15.51 557.23 A15.5074 15.5074 -180 0 0 0 572.74 L0 596.49 A15.5074 15.5074 -180 0 0 15.51 612 Z"
					class="st7"/>
			<text x="11.87" y="570.21" class="st8"><tspan class="st9">In</tspan><tspan class="st9">-</tspan><tspan class="st9">Frequent Data Partition </tspan><tspan
						x="4" dy="1.26em" class="st10">Name : </tspan><tspan class="st11">InFrequentData </tspan><tspan x="4"
						dy="1.2em" class="st10">StoreName :</tspan><tspan class="st11"> </tspan><tspan class="st11">DistributedMySql </tspan><tspan
						x="4" dy="1.2em" class="st10">SlidingExpiration :</tspan><tspan class="st11"> </tspan><tspan class="st11">00:05:00</tspan></text>		</g>
		<g id="shape88-188" transform="translate(26.6538,-342)">
			<title>Rectangle</title>
			<desc>Pavalisoft.Caching.CacheManager API Connects to Cache Stores ...</desc>
			<rect x="0" y="570.153" width="742.919" height="41.8474" class="st7"/>
			<text x="230.2" y="585.68" class="st13">Pavalisoft.Caching.CacheManager API <tspan x="140.8" dy="1.8em" class="st14">Connects to Cache Stores using Cache Settings configuration (ICacheStore and ICachePartition)</tspan></text>		</g>
		<g id="shape94-192" transform="translate(60.9231,-409.114)">
			<title>Rounded Rectangle.94</title>
			<desc>Add Object to Cache cacheManager.Set(“FrequentData”, “key1”, ...</desc>
			<path d="M15.51 612 L139.57 612 A15.5074 15.5074 -180 0 0 155.08 596.49 L155.08 572.74 A15.5074 15.5074 -180 0 0 139.57
						 557.23 L15.51 557.23 A15.5074 15.5074 -180 0 0 0 572.74 L0 596.49 A15.5074 15.5074 -180 0 0 15.51 612 Z"
					class="st7"/>
			<text x="26.78" y="576.21" class="st8"><tspan class="st9">Add Object to Cache</tspan> <tspan x="4" dy="1.26em"
						class="st11">cacheManager.</tspan><tspan class="st10">Set(</tspan><tspan class="st11">“</tspan><tspan
						class="st11">FrequentData</tspan><tspan x="4" dy="1.2em" class="st11">“</tspan><tspan class="st11">key1</tspan><tspan
						class="st11">”, “</tspan><tspan class="st11">testString</tspan><tspan class="st11">”</tspan><tspan
						class="st10">);</tspan></text>		</g>
		<g id="shape95-206" transform="translate(220.5,-409.114)">
			<title>Rounded Rectangle.95</title>
			<desc>Get Object from Cache cacheManager.Get(“LocalizationData”, “k...</desc>
			<path d="M17.58 612 L158.26 612 A17.5843 17.5843 -180 0 0 175.85 594.42 L175.85 574.81 A17.5843 17.5843 -180 0 0 158.26
						 557.23 L17.58 557.23 A17.5843 17.5843 -180 0 0 0 574.81 L0 594.42 A17.5843 17.5843 -180 0 0 17.58 612 Z"
					class="st7"/>
			<text x="31.48" y="576.21" class="st8"><tspan class="st9">Get Object from Cache</tspan> <tspan x="4" dy="1.26em"
						class="st11">cacheManager.</tspan><tspan class="st10">Get(</tspan><tspan class="st11">“</tspan><tspan
						class="st11">LocalizationData</tspan><tspan x="4" dy="1.2em" class="st11">“</tspan><tspan class="st11">key2</tspan><tspan
						class="st11">”</tspan><tspan class="st10">);</tspan></text>		</g>
		<g id="shape96-218" transform="translate(402.923,-409.114)">
			<title>Rounded Rectangle.96</title>
			<desc>Refresh Object in Cache cacheManager.Refresh(“MasterData”, “k...</desc>
			<path d="M16.41 612 L147.67 612 A16.4074 16.4074 -180 0 0 164.08 595.59 L164.08 573.64 A16.4074 16.4074 -180 0 0 147.67
						 557.23 L16.41 557.23 A16.4074 16.4074 -180 0 0 0 573.64 L0 595.59 A16.4074 16.4074 -180 0 0 16.41 612 Z"
					class="st7"/>
			<text x="22.9" y="576.21" class="st8"><tspan class="st9">Refresh Object in Cache</tspan> <tspan x="4" dy="1.26em"
						class="st11">cacheManager.</tspan><tspan class="st10">Refresh(</tspan><tspan class="st11">“</tspan><tspan
						class="st11">MasterData</tspan><tspan x="4" dy="1.2em" class="st11">“</tspan><tspan class="st11">key3</tspan><tspan
						class="st11">”</tspan><tspan class="st10">);</tspan></text>		</g>
		<g id="shape97-230" transform="translate(576,-409.114)">
			<title>Rounded Rectangle.97</title>
			<desc>Remove Object from Cache cacheManager.Remove(“InFrequentData”...</desc>
			<path d="M18.31 612 L164.8 612 A18.3112 18.3112 -180 0 0 183.12 593.69 L183.12 575.54 A18.3112 18.3112 -180 0 0 164.8
						 557.23 L18.31 557.23 A18.3112 18.3112 -180 0 0 0 575.54 L0 593.69 A18.3112 18.3112 -180 0 0 18.31 612 Z"
					class="st7"/>
			<text x="23.68" y="576.21" class="st8"><tspan class="st9">Remove Object from Cache</tspan> <tspan x="4" dy="1.26em"
						class="st11">cacheManager.</tspan><tspan class="st10">Remove(</tspan><tspan class="st11">“</tspan><tspan
						class="st11">InFrequentData</tspan><tspan x="4" dy="1.2em" class="st11">“</tspan><tspan class="st11">key4</tspan><tspan
						class="st11">”</tspan><tspan class="st10">);</tspan></text>		</g>
		<g id="shape101-242" transform="translate(176.538,-261)">
			<title>Dynamic connector</title>
			<path d="M-5.54 612 L-5.54 630 L-12.46 630 L-12.46 636.46" class="st15"/>
		</g>
		<g id="shape103-248" transform="translate(337.5,-261)">
			<title>Dynamic connector.103</title>
			<path d="M9 612 L9 636.46" class="st15"/>
		</g>
		<g id="shape105-253" transform="translate(520.269,-261)">
			<title>Dynamic connector.105</title>
			<path d="M-6.23 612 L-6.23 630 L-11.77 630 L-11.77 636.46" class="st15"/>
		</g>
		<g id="shape107-258" transform="translate(684,-261)">
			<title>Dynamic connector.107</title>
			<path d="M-4.5 612 L-4.5 630 L-13.5 630 L-13.5 636.46" class="st15"/>
		</g>
		<g id="shape112-263" transform="translate(138.462,-409.114)">
			<title>Dynamic connector.112</title>
			<path d="M0 612 L0 623.88 L259.65 623.88 L259.65 630.23" class="st17"/>
		</g>
		<g id="shape113-269" transform="translate(398.114,-342)">
			<title>Dynamic connector.113</title>
			<path d="M0 612 L0 615.73 L-227.11 615.73 L-227.11 631.19" class="st17"/>
		</g>
		<g id="shape114-274" transform="translate(308.423,-409.114)">
			<title>Dynamic connector.114</title>
			<path d="M0 612 L0 623.88 L89.69 623.88 L89.69 630.23" class="st19"/>
		</g>
		<g id="shape115-280" transform="translate(398.114,-342)">
			<title>Dynamic connector.115</title>
			<path d="M0 612 L0 615.73 L-51.61 615.73 L-51.61 631.19" class="st19"/>
		</g>
		<g id="shape116-285" transform="translate(484.962,-409.114)">
			<title>Dynamic connector.116</title>
			<path d="M0 612 L0 623.88 L-86.85 623.88 L-86.85 630.23" class="st21"/>
		</g>
		<g id="shape117-291" transform="translate(398.114,-342)">
			<title>Dynamic connector.117</title>
			<path d="M0 612 L0 615.73 L115.92 615.73 L115.92 631.19" class="st21"/>
		</g>
		<g id="shape118-296" transform="translate(667.558,-409.114)">
			<title>Dynamic connector.118</title>
			<path d="M0 612 L0 623.88 L-269.44 623.88 L-269.44 630.23" class="st23"/>
		</g>
		<g id="shape119-302" transform="translate(398.114,-342)">
			<title>Dynamic connector.119</title>
			<path d="M0 612 L0 615.73 L281.39 615.73 L281.39 631.19" class="st23"/>
		</g>
		<g id="shape120-307" transform="translate(60.9231,-555.75)">
			<title>Trapezoid</title>
			<desc>using Pavalisoft.Caching; // Import Pavalisoft.Caching to use...</desc>
			<path d="M0 612 L695.08 612 L625.57 585.9 L69.51 585.9 L0 612 Z" class="st7"/>
			<text x="213.58" y="595.95" class="st25">using Pavalisoft.Caching;<tspan class="st26"> </tspan><tspan class="st27">// Import Pavalisoft.Caching to use CacheManager implementation </tspan><tspan
						x="205.39" dy="1.2em" class="st6">services.AddCaching(Configuration);</tspan><tspan class="st28"> </tspan><tspan
						class="st27">// Register CacheManager service in services pipeline.</tspan></text>		</g>
		<g id="group122-315" transform="translate(63.5192,-27.6571)">
			<title>Sheet.122</title>
			<g id="shape7-316">
				<title>Rectangle.7</title>
				<desc>Memory Cache Store</desc>
				<rect x="0" y="549.385" width="162" height="62.6145" class="st7"/>
				<text x="46.51" y="562.39" class="st25">Memory Cache Store</text>			</g>
			<g id="shape10-319">
				<title>Frame</title>
				<desc>Frequent Data Partition</desc>
				<path d="M0 612 L81 612 L81 567.77 L0 567.77 L0 612 ZM9 603 L72 603 L72 576.77 L9 576.77 L9 603 Z" class="st7"/>
				<text x="11.26" y="586.89" class="st29">Frequent Data <tspan x="22.87" dy="1.2em" class="st6">Partition</tspan></text>			</g>
			<g id="shape13-323" transform="translate(81,0)">
				<title>Frame.13</title>
				<desc>Cache Partition 2</desc>
				<path d="M0 612 L81 612 L81 567.77 L0 567.77 L0 612 ZM9 603 L72 603 L72 576.77 L9 576.77 L9 603 Z" class="st7"/>
				<text x="9.45" y="586.89" class="st29">Cache Partition <tspan x="37.97" dy="1.2em" class="st6">2</tspan></text>			</g>
		</g>
		<g id="group123-327" transform="translate(229.327,-27.6571)">
			<title>Sheet.123</title>
			<g id="group5-328" transform="translate(1.17E-05,0)">
				<title>Can</title>
				<desc>SQL Server Cache Store</desc>
				<g id="shape6-329">
					<title>Sheet.6</title>
					<path d="M0 605.09 A87.9231 6.90929 -180 0 0 175.85 605.09 L175.85 549.82 L0 549.82 L0 605.09 Z" class="st7"/>
				</g>
				<g id="shape5-331">
					<ellipse cx="87.9231" cy="549.816" rx="87.9231" ry="6.90929" class="st7"/>
					<text x="57.91" y="555.91" class="st25">SQL Server Cache Store</text>				</g>
			</g>
			<g id="shape15-334" transform="translate(2.39808E-14,-7.27667)">
				<title>Frame.15</title>
				<desc>Localization Data Partition</desc>
				<path d="M0 612 L87.92 612 L87.92 564.21 L0 564.21 L0 612 ZM9 603 L78.92 603 L78.92 573.21 L9 573.21 L9 603 Z"
						class="st7"/>
				<text x="9.29" y="585.11" class="st29">Localization Data <tspan x="26.33" dy="1.2em" class="st6">Partition</tspan></text>			</g>
			<g id="shape17-338" transform="translate(87.9231,-7.27667)">
				<title>Frame.17</title>
				<desc>Cache Partition 4</desc>
				<path d="M0 612 L87.92 612 L87.92 564.21 L0 564.21 L0 612 ZM9 603 L78.92 603 L78.92 573.21 L9 573.21 L9 603 Z"
						class="st7"/>
				<text x="12.91" y="585.11" class="st29">Cache Partition <tspan x="41.43" dy="1.2em" class="st6">4</tspan></text>			</g>
		</g>
		<g id="group124-342" transform="translate(408.981,-27.6571)">
			<title>Sheet.124</title>
			<g id="group2-343">
				<title>Cube</title>
				<desc>REDIS Cache Store</desc>
				<g id="shape3-344">
					<title>Sheet.3</title>
					<path d="M0 549.49 L164.76 549.49 L171.35 542.91 L6.59 542.91 L0 549.49 Z" class="st30"/>
				</g>
				<g id="shape4-346">
					<title>Sheet.4</title>
					<path d="M164.76 612 L171.35 605.41 L171.35 542.91 L164.76 549.49 L164.76 612 Z" class="st31"/>
				</g>
				<g id="shape2-348">
					<rect x="0" y="549.493" width="164.76" height="62.5072" class="st7"/>
					<text x="58.1" y="562.49" class="st25">REDIS Cache Store</text>				</g>
			</g>
			<g id="shape19-351">
				<title>Frame.19</title>
				<desc>Master Data Partition</desc>
				<path d="M0 612 L87.92 612 L87.92 567.77 L0 567.77 L0 612 ZM9 603 L78.92 603 L78.92 576.77 L9 576.77 L9 603 Z"
						class="st7"/>
				<text x="18.76" y="586.89" class="st29">Master Data <tspan x="26.33" dy="1.2em" class="st6">Partition</tspan></text>			</g>
			<g id="shape21-355" transform="translate(84.8381,0)">
				<title>Frame.21</title>
				<desc>Cache Partition 6</desc>
				<path d="M0 612 L81 612 L81 567.77 L0 567.77 L0 612 ZM9 603 L72 603 L72 576.77 L9 576.77 L9 603 Z" class="st7"/>
				<text x="9.45" y="586.89" class="st29">Cache Partition <tspan x="37.97" dy="1.2em" class="st6">6</tspan></text>			</g>
		</g>
		<g id="group125-359" transform="translate(584.135,-27.6571)">
			<title>Sheet.125</title>
			<g id="group126-360">
				<title>Can</title>
				<desc>MySQL Cache Store</desc>
				<g id="shape127-361">
					<title>Sheet.127</title>
					<path d="M0 605.09 A87.9231 6.90929 -180 0 0 175.85 605.09 L175.85 549.82 L0 549.82 L0 605.09 Z" class="st7"/>
				</g>
				<g id="shape126-363">
					<ellipse cx="87.9231" cy="549.816" rx="87.9231" ry="6.90929" class="st7"/>
					<text x="59.96" y="555.91" class="st25">MySQL Cache Store</text>				</g>
			</g>
			<g id="shape128-366" transform="translate(2.39808E-14,-7.27667)">
				<title>Frame.15</title>
				<desc>Localization Data Partition</desc>
				<path d="M0 612 L87.92 612 L87.92 564.21 L0 564.21 L0 612 ZM9 603 L78.92 603 L78.92 573.21 L9 573.21 L9 603 Z"
						class="st7"/>
				<text x="9.29" y="585.11" class="st29">Localization Data <tspan x="26.33" dy="1.2em" class="st6">Partition</tspan></text>			</g>
			<g id="shape129-370" transform="translate(87.9231,-7.27667)">
				<title>Frame.17</title>
				<desc>Cache Partition 8</desc>
				<path d="M0 612 L87.92 612 L87.92 564.21 L0 564.21 L0 612 ZM9 603 L78.92 603 L78.92 573.21 L9 573.21 L9 603 Z"
						class="st7"/>
				<text x="12.91" y="585.11" class="st29">Cache Partition <tspan x="41.43" dy="1.2em" class="st6">8</tspan></text>			</g>
		</g>
		<g id="shape102-374" transform="translate(164.077,-129.022)">
			<title>Dynamic connector.102</title>
			<path d="M0 612 L0 630 L-60.06 630 L-60.06 662.1" class="st23"/>
		</g>
		<g id="shape104-379" transform="translate(346.5,-129.022)">
			<title>Dynamic connector.104</title>
			<path d="M0 612 L0 630 L-73.21 630 L-73.21 651.26" class="st23"/>
		</g>
		<g id="shape106-384" transform="translate(508.5,-129.022)">
			<title>Dynamic connector.106</title>
			<path d="M0 612 L0 630 L-55.56 630 L-55.56 662.1" class="st23"/>
		</g>
		<g id="shape108-389" transform="translate(670.5,-129.022)">
			<title>Dynamic connector.108</title>
			<path d="M0 612 L0 630 L-42.4 630 L-42.4 651.26" class="st23"/>
		</g>
		<g id="shape143-394" transform="translate(60.9231,-495)">
			<title>Rectangle.143</title>
			<desc>using Pavalisoft.Caching.InMemory; //Import this namespace to...</desc>
			<rect x="0" y="553.5" width="155.077" height="58.5" class="st7"/>
			<text x="10.46" y="562.65" class="st32">using Pavalisoft.Caching.InMemory; <tspan x="20.31" dy="1.35em" class="st33">//Import this namespace to use InMemory and </tspan><tspan
						x="16.12" dy="1.5em" class="st33">DitributedInMemory cache store implementations </tspan><tspan x="19.11"
						dy="1.267em" class="st6">services.AddInMemoryCache(); </tspan><tspan x="6.73" dy="1.4em" class="st33">// Adds InMemory and Distributed InMemory Cache Store </tspan><tspan
						x="34.48" dy="1.5em" class="st33">implementations to CacheManager</tspan></text>		</g>
		<g id="shape144-402" transform="translate(221.885,-495)">
			<title>Rectangle.144</title>
			<desc>using Pavalisoft.Caching.SqlServer; //Import this namespace t...</desc>
			<rect x="0" y="553.5" width="174.462" height="58.5" class="st7"/>
			<text x="22.14" y="563.85" class="st32">using Pavalisoft.Caching.SqlServer; <tspan x="21.35" dy="1.35em" class="st33">//Import this namespace to use SqlServer Cache Store </tspan><tspan
						x="67.63" dy="1.8em" class="st33">implementation </tspan><tspan x="36.71" dy="1.333em" class="st6">services.AddMySqlCache(); </tspan><tspan
						x="10.96" dy="2em" class="st33">// Adds MySql Cache Store implementations to CacheManager</tspan></text>		</g>
		<g id="shape145-409" transform="translate(402.923,-495)">
			<title>Rectangle.145</title>
			<desc>using Pavalisoft.Caching.Redis; //Import this namespace to us...</desc>
			<rect x="0" y="553.5" width="164.077" height="58.5" class="st7"/>
			<text x="24.47" y="565.05" class="st32">using Pavalisoft.Caching.Redis; <tspan x="21.05" dy="1.35em" class="st33">//Import this namespace to use Redis Cache Store </tspan><tspan
						x="62.44" dy="1.5em" class="st33">implementation </tspan><tspan x="33.12" dy="1.267em" class="st6">services.AddRedisCache(); </tspan><tspan
						x="6.77" dy="2em" class="st33">// Adds Redis Cache Store implementations to CacheManager</tspan></text>		</g>
		<g id="shape146-416" transform="translate(576,-495)">
			<title>Rectangle.146</title>
			<desc>using Pavalisoft.Caching.MySql; //Import this namespace to us...</desc>
			<rect x="0" y="553.5" width="183.115" height="58.5" class="st7"/>
			<text x="32.39" y="569.85" class="st32">using Pavalisoft.Caching.MySql; <tspan x="9.82" dy="1.35em" class="st33">//Import this namespace to use MySql cache store implementation </tspan><tspan
						x="35.12" dy="1.2em" class="st6">services.AddSqlServerCache(); </tspan><tspan x="11.4" dy="2em"
						class="st33">// Adds SqlServer Cache Store implementations to CacheManager</tspan></text>		</g>
		<g id="shape155-422" transform="translate(757.369,732.981) rotate(-179.7)">
			<title>Trapezoid.155</title>
			<desc>ICacheManager cacheManager = app.ApplicationServices.GetServi...</desc>
			<path d="M0 612 L697.51 612 L627.76 585.9 L69.75 585.9 L0 612 Z" class="st7"/>
			<text x="-622.55" y="-595.95" transform="rotate(180)" class="st34">ICacheManager cacheManager = app.ApplicationServices.GetService(typeof(ICacheManager)) as ICacheManager; <tspan
						class="st35">// Sample code for illustration only</tspan></text>		</g>
	</g>
</svg>
